<?xml version="1.0" encoding="utf-8"?>
<!-- Generator: Adobe Illustrator 16.0.3, SVG Export Plug-In . SVG Version: 6.00 Build 0)  -->
<!DOCTYPE svg PUBLIC "-//W3C//DTD SVG 1.1//EN" "http://www.w3.org/Graphics/SVG/1.1/DTD/svg11.dtd">
<svg version="1.1" id="Ebene_1" xmlns="http://www.w3.org/2000/svg" xmlns:xlink="http://www.w3.org/1999/xlink" x="0px" y="0px"
	 width="600px" height="2283.812px" viewBox="0 0 600 2283.812" enable-background="new 0 0 600 2283.812" xml:space="preserve">
<g>
	<polygon fill="#312783" points="92.464,1858.482 228.071,1735.201 83.218,1581.096 83.218,1396.178 249.645,1269.806 
		184.925,1205.087 271.224,1141.911 135.612,1023.246 197.252,946.194 70.887,825.995 228.071,668.809 117.119,597.922 
		200.332,517.785 61.64,422.243 58.56,203.418 166.432,70.887 43.147,0 0,0 0,2283.812 228.071,2145.118 95.545,1981.773 	"/>
	<polygon fill="#312783" points="371.928,72.686 504.455,236.03 507.535,359.321 371.928,482.603 516.781,636.708 322.622,825.664 
		511.641,933.093 415.074,1012.717 328.776,1075.893 511.641,1227.704 437.309,1304.485 529.113,1391.81 371.928,1548.995 
		482.881,1619.882 399.668,1700.019 538.359,1795.561 274.617,1899.19 490.639,2136.795 556.852,2283.812 600,2283.812 600,0 	"/>
</g>
</svg>
