<?xml version="1.0" encoding="utf-8"?>
<!-- Generator: Adobe Illustrator 16.0.3, SVG Export Plug-In . SVG Version: 6.00 Build 0)  -->
<!DOCTYPE svg PUBLIC "-//W3C//DTD SVG 1.1//EN" "http://www.w3.org/Graphics/SVG/1.1/DTD/svg11.dtd">
<svg version="1.1" id="Ebene_1" xmlns="http://www.w3.org/2000/svg" xmlns:xlink="http://www.w3.org/1999/xlink" x="0px" y="0px"
	 width="271.224px" height="2283.812px" viewBox="0 0 271.224 2283.812" enable-background="new 0 0 271.224 2283.812"
	 xml:space="preserve">
<polygon fill="#312783" points="0,0 0,2283.812 228.071,2145.118 95.545,1981.773 92.464,1858.482 228.071,1735.201 
	83.218,1581.096 83.218,1396.178 249.645,1269.806 184.925,1205.087 271.224,1141.911 135.612,1023.246 197.252,946.194 
	70.887,825.995 228.071,668.809 117.119,597.922 200.332,517.785 61.64,422.243 58.56,203.418 166.432,70.887 43.147,0 "/>
<polygon fill="#312783" points="524.447,2283.812 524.447,0 296.375,72.686 428.902,236.03 431.982,359.321 296.375,482.603 
	441.228,636.708 247.068,825.664 436.087,933.093 339.521,1012.717 253.222,1075.893 436.087,1227.704 361.755,1304.485 
	453.56,1391.81 296.375,1548.995 407.328,1619.882 324.115,1700.019 462.806,1795.561 199.063,1899.19 415.085,2136.795 
	481.298,2283.812 "/>
</svg>
